<?xml version="1.0" standalone="no"?>
<!DOCTYPE svg PUBLIC "-//W3C//DTD SVG 20010904//EN"
 "http://www.w3.org/TR/2001/REC-SVG-20010904/DTD/svg10.dtd">
<svg version="1.0" xmlns="http://www.w3.org/2000/svg"
 width="512.000000pt" height="512.000000pt" viewBox="0 0 512.000000 512.000000"
 preserveAspectRatio="xMidYMid meet">

<g transform="translate(0.000000,512.000000) scale(0.100000,-0.100000)"
fill="#000000" stroke="none">
<path d="M2245 5095 c-577 -73 -1095 -325 -1500 -730 -204 -203 -327 -372
-440 -607 -169 -351 -245 -712 -262 -1242 -3 -115 0 -484 7 -820 15 -676 8
-988 -31 -1321 -16 -146 -18 -188 -9 -220 17 -57 53 -100 106 -125 52 -26 86
-25 344 7 130 16 212 18 785 14 1356 -9 1532 -7 1715 17 581 79 999 271 1374
631 950 916 1048 2408 226 3446 -89 112 -256 282 -377 382 -352 291 -772 478
-1253 559 -133 22 -539 28 -685 9z m615 -241 c249 -32 479 -103 715 -218 696
-341 1153 -966 1282 -1751 27 -166 25 -535 -5 -705 -86 -500 -304 -929 -647
-1275 -331 -334 -724 -524 -1229 -595 -273 -38 -543 -44 -1116 -26 -780 24
-1139 20 -1480 -19 -68 -8 -126 -12 -128 -10 -3 2 3 82 12 177 32 329 38 628
25 1163 -15 647 -8 1114 20 1323 40 292 106 525 210 737 98 200 195 338 356
504 518 538 1242 791 1985 695z"/>
<path d="M3821 3044 c-81 -22 -149 -62 -216 -129 -196 -196 -192 -511 11 -705
192 -185 497 -183 685 4 266 264 157 716 -199 826 -77 24 -201 26 -281 4z
m249 -244 c90 -46 144 -134 143 -235 0 -103 -55 -188 -148 -231 -171 -80 -368
43 -367 231 0 73 21 128 70 178 63 66 123 89 210 81 30 -2 71 -13 92 -24z"/>
<path d="M2443 3026 c-137 -32 -271 -136 -330 -257 -40 -81 -52 -135 -53 -230
0 -221 143 -409 359 -473 77 -23 204 -21 284 4 261 81 407 372 318 634 -50
144 -162 256 -307 306 -78 27 -192 34 -271 16z m189 -236 c97 -27 178 -135
178 -237 0 -31 -5 -73 -12 -95 -15 -50 -79 -123 -130 -149 -196 -100 -426 92
-364 303 40 139 186 217 328 178z"/>
<path d="M1013 2989 c-34 -10 -90 -38 -125 -62 -258 -173 -292 -540 -72 -761
196 -196 510 -192 702 8 66 68 105 136 127 223 66 254 -96 532 -350 598 -82
21 -205 19 -282 -6z m226 -225 c108 -32 181 -131 181 -245 0 -150 -107 -259
-255 -259 -166 0 -288 146 -255 306 20 95 81 164 174 196 63 22 89 22 155 2z"/>
</g>
</svg>
